<?xml version="1.0" ?><!DOCTYPE svg  PUBLIC '-//W3C//DTD SVG 1.1//EN'  'http://www.w3.org/Graphics/SVG/1.1/DTD/svg11.dtd'><svg enable-background="new 0 0 153 153" height="153px" id="Layer_1" version="1.1" viewBox="0 0 153 153" width="153px" xml:space="preserve" xmlns="http://www.w3.org/2000/svg" xmlns:xlink="http://www.w3.org/1999/xlink"><g><path d="M152.5,122.1c0,16.789-13.611,30.4-30.4,30.4H30.9c-16.789,0-30.4-13.611-30.4-30.4V30.899   C0.5,14.109,14.111,0.5,30.9,0.5h91.2c16.789,0,30.4,13.609,30.4,30.399V122.1z" fill="#60C2A5"/><path d="M131.104,97.222c0,5.254-4.26,9.514-9.514,9.514H70.256H31.41c-5.254,0-9.514-4.26-9.514-9.514V52.428   c0-5.253,4.26-9.513,9.514-9.513h90.18c5.254,0,9.514,4.26,9.514,9.513V97.222z" fill="#FFFFFF"/><polygon fill="#FFFFFF" points="88.049,122.084 88.049,104.786 64.95,104.786  "/></g></svg>